<svg xmlns="http://www.w3.org/2000/svg"  viewBox="0 0 64 64" width="128px" height="128px"><polygon fill="#a2a2ea" points="40,24 44.286,30 60.799,30 60.799,24"/><polygon fill="#a2a2ea" points="48.059,35 52.344,41 61,41 61,35"/><polygon fill="#b6b6ef" points="41,32 26,11 21.5,11 17,11 32,32 17,53 21.5,53 26,53 36.5,38.3 47,53 51.5,53 56,53"/><polygon fill="#a2a2ea" points="12.027,53.012 7.527,53.012 3.027,53.012 18.027,32.012 3.027,11.012 7.527,11.012 12.027,11.012 27.027,32.012"/><path fill="#8d6c9f" d="M12,54H3c-0.375,0-0.718-0.209-0.89-0.542c-0.171-0.334-0.142-0.734,0.076-1.039L16.771,32	L2.187,11.581c-0.218-0.305-0.247-0.705-0.076-1.039C2.282,10.209,2.625,10,3,10h9c0.323,0,0.626,0.156,0.813,0.419l15,21	c0.249,0.348,0.249,0.814,0,1.162l-15,21C12.626,53.844,12.323,54,12,54z M4.943,52h6.542l14.286-20L11.485,12H4.943l13.87,19.419	c0.249,0.348,0.249,0.814,0,1.162L4.943,52z"/><path fill="#8d6c9f" d="M56,54h-9c-0.323,0-0.626-0.156-0.813-0.419L36.5,40.021l-9.687,13.561	C26.626,53.844,26.323,54,26,54h-9c-0.375,0-0.718-0.209-0.89-0.542c-0.171-0.334-0.142-0.734,0.076-1.039L30.771,32L16.187,11.581	c-0.218-0.305-0.247-0.705-0.076-1.039C16.282,10.209,16.625,10,17,10h9c0.323,0,0.626,0.156,0.813,0.419l30,42	c0.218,0.305,0.247,0.705,0.076,1.039C56.718,53.791,56.375,54,56,54z M47.515,52h6.542L25.485,12h-6.542l13.87,19.419	c0.249,0.348,0.249,0.814,0,1.162L18.943,52h6.542l10.201-14.281c0.375-0.525,1.252-0.525,1.627,0L47.515,52z"/><path fill="#8d6c9f" d="M61,31H44.487c-0.323,0-0.626-0.156-0.813-0.419l-4.286-6c-0.218-0.305-0.247-0.705-0.076-1.039	C39.483,23.209,39.826,23,40.201,23H61c0.553,0,1,0.447,1,1v6C62,30.553,61.553,31,61,31z M45.002,29H60v-4H42.145L45.002,29z"/><path fill="#8d6c9f" d="M61,42h-8.655c-0.323,0-0.626-0.156-0.813-0.419l-4.286-6c-0.218-0.305-0.247-0.705-0.076-1.039	C47.341,34.209,47.684,34,48.059,34H61c0.553,0,1,0.447,1,1v6C62,41.553,61.553,42,61,42z M52.859,40H60v-4h-9.998L52.859,40z"/><path fill="#8d6c9f" d="M43.652,21.065c-0.553,0-1-0.447-1-1v-2c0-0.553,0.447-1,1-1s1,0.447,1,1v2 C44.652,20.618,44.205,21.065,43.652,21.065z"/><path fill="#8d6c9f" d="M48.218,21.065c-0.553,0-1-0.447-1-1v-2c0-0.553,0.447-1,1-1s1,0.447,1,1v2 C49.218,20.618,48.771,21.065,48.218,21.065z"/><path fill="#8d6c9f" d="M52.782,21.065c-0.553,0-1-0.447-1-1v-2c0-0.553,0.447-1,1-1s1,0.447,1,1v2 C53.782,20.618,53.335,21.065,52.782,21.065z"/><path fill="#8d6c9f" d="M57.348,21.065c-0.553,0-1-0.447-1-1v-2c0-0.553,0.447-1,1-1s1,0.447,1,1v2 C58.348,20.618,57.9,21.065,57.348,21.065z"/></svg>